# xmcd
#
# Track frame offsets: 
#        150
#        15029
#        31488
#        46802
#        58238
#        68842
#        81927
#        95947
#        106923
#        123015
#        139472
#        156376
#        171342
#        185205
#        200674
#        215407
#        231794
#        244378
#        260384
#        273644
#
# Disc length: 3854 seconds
#
# Revision: 0
# Processed by: cddbd v1.5.2PL0 Copyright (c) Steve Scherf et al.
# Submitted via: ExactAudioCopy v1.0b3
#
DISCID=2e0f0c14
DTITLE=Olivia Newton-John - Olivia - My Country
DYEAR=2012
DGENRE=Country
TTITLE0=Banks Of The Ohio
TTITLE1=If You Could Read My Mind
TTITLE2=Take Me Home Country Roads
TTITLE3=Heartbreaker
TTITLE4=Help Me Make it Through The Night
TTITLE5=If Not For You
TTITLE6=Jolene
TTITLE7=Blue Eyes Crying in The Rain
TTITLE8=Don't Stop Believin'
TTITLE9=Every Face Tells a Story
TTITLE10=Sam
TTITLE11=Ring of Fire
TTITLE12=Let Me Be There
TTITLE13=If We Try
TTITLE14=If You Love Me Let Me Know
TTITLE15=I Honestly Love You
TTITLE16=Long Live Love
TTITLE17=Have You Never Been Mellow
TTITLE18=Loving Arms
TTITLE19=Please Mr. Please
EXTD=
EXTT0=
EXTT1=
EXTT2=
EXTT3=
EXTT4=
EXTT5=
EXTT6=
EXTT7=
EXTT8=
EXTT9=
EXTT10=
EXTT11=
EXTT12=
EXTT13=
EXTT14=
EXTT15=
EXTT16=
EXTT17=
EXTT18=
EXTT19=
PLAYORDER=
